<svg width="40" height="40" viewBox="0 0 40 40" fill="none" xmlns="http://www.w3.org/2000/svg">
<path d="M10.625 27.0312L2.11516 25.1201L1.25 22.3438L10.625 17.6562L20 22.3438L19.0232 25.1759L10.625 27.0312Z" fill="#1DE8F1"/>
<path d="M10.625 40L1.25 35.3125V22.3438L10.625 27.0312L12.9688 30.4808V36.632L10.625 40Z" fill="#00D0FF"/>
<path d="M20 35.3125L10.625 40V27.0312L20 22.3438V35.3125Z" fill="#00BBFF"/>
<path d="M29.375 27.0312L20.8652 25.1201L20 22.3438L29.375 17.6562L38.75 22.3438L37.7732 25.1759L29.375 27.0312Z" fill="#B9A2FF"/>
<path d="M29.375 40L20 35.3125V22.3438L29.375 27.0312L31.7188 30.4808V36.632L29.375 40Z" fill="#865FFF"/>
<path d="M38.75 35.3125L29.375 40V27.0312L38.75 22.3438V35.3125Z" fill="#5C27FE"/>
<path d="M20 9.375L11.4902 7.46383L10.625 4.6875L20 0L29.375 4.6875L28.3982 7.51961L20 9.375Z" fill="#7986E8"/>
<path d="M20 22.3438L10.625 17.6562V4.6875L20 9.375L22.3438 12.7464V18.9757L20 22.3438Z" fill="#6E77E5"/>
<path d="M29.375 17.6562L20 22.3438V9.375L29.375 4.6875V17.6562Z" fill="#4C5CE1"/>
</svg>
