<svg width="40" height="40" viewBox="0 0 40 40" fill="none" xmlns="http://www.w3.org/2000/svg">
<path d="M28.2031 34.0625C28.2031 34.7187 27.6876 35.2344 27.0312 35.2344H12.9688C12.3124 35.2344 11.7969 34.7187 11.7969 34.0625C11.7969 33.4062 12.3124 32.8906 12.9688 32.8906H27.0312C27.6876 32.8906 28.2031 33.4062 28.2031 34.0625Z" fill="#DEC7FF"/>
<path d="M28.2031 34.0625C28.2031 34.7187 27.6876 35.2344 27.0312 35.2344H17.6562V32.8906H27.0312C27.6876 32.8906 28.2031 33.4062 28.2031 34.0625Z" fill="#5C27FE"/>
<path d="M28.2031 5.9375C28.2031 6.59367 27.6876 7.10938 27.0312 7.10938H12.9688C12.3124 7.10938 11.7969 6.59367 11.7969 5.9375C11.7969 5.28117 12.3124 4.76562 12.9688 4.76562H27.0312C27.6876 4.76562 28.2031 5.28117 28.2031 5.9375Z" fill="#DEC7FF"/>
<path d="M35.3582 19.0753C34.9279 19.0753 34.5147 18.8384 34.3087 18.4276L29.374 8.55821C29.0845 7.97915 29.3191 7.27532 29.8982 6.98579C30.4761 6.69743 31.1811 6.9297 31.4706 7.50993L36.4053 17.3793C36.6948 17.9584 36.4602 18.6622 35.8811 18.9517C35.7129 19.0352 35.5344 19.0753 35.3582 19.0753Z" fill="#5C27FE"/>
<path d="M30.4207 33.1379C30.2445 33.1379 30.0659 33.0978 29.8977 33.0143C29.4869 32.8094 29.25 32.3951 29.25 31.966C29.25 31.7897 29.2901 31.6101 29.3736 31.4418L34.3083 21.5725C34.599 20.9934 35.3005 20.7611 35.8807 21.0483C36.2916 21.2532 36.5284 21.6675 36.5284 22.0966C36.5284 22.2729 36.4884 22.4526 36.4048 22.6208L31.4702 32.4901C31.2641 32.901 30.851 33.1379 30.4207 33.1379Z" fill="#5C27FE"/>
<path d="M4.63989 19.0753C4.46364 19.0753 4.28513 19.0352 4.11693 18.9517C3.53786 18.6622 3.30325 17.9584 3.59278 17.3793L8.52747 7.50993C8.81817 6.9297 9.51966 6.69743 10.0999 6.98579C10.679 7.27532 10.9136 7.97915 10.624 8.55821L5.68935 18.4276C5.48333 18.8384 5.07021 19.0753 4.63989 19.0753Z" fill="#DEC7FF"/>
<path d="M9.57692 33.1379C9.14661 33.1379 8.73349 32.901 8.52747 32.4901L3.59278 22.6208C3.30325 22.0417 3.53786 21.3379 4.11693 21.0483C4.69482 20.7611 5.39982 20.9934 5.68935 21.5725L10.624 31.4418C10.9136 32.0209 10.679 32.7247 10.0999 33.0143C9.93169 33.0978 9.75317 33.1379 9.57692 33.1379Z" fill="#DEC7FF"/>
<path d="M34.3108 20.1236C34.1838 20.1236 34.0556 20.103 33.9297 20.0595L26.4041 17.4686C25.7918 17.2581 25.4668 16.5909 25.6774 15.9797C25.8879 15.3674 26.5563 15.0436 27.1663 15.253L34.6919 17.8439C35.3042 18.0545 35.6292 18.7217 35.4186 19.3328C35.2515 19.8192 34.7972 20.1236 34.3108 20.1236Z" fill="#5C27FE"/>
<path d="M25.2567 14.2105C25.0164 14.2105 24.7726 14.1361 24.5632 13.9827C24.0425 13.5994 23.9303 12.8658 24.3137 12.3439L27.8637 7.51679C28.247 6.99608 28.9783 6.88507 29.5025 7.26733C30.0232 7.65069 30.1354 8.38429 29.7519 8.90616L26.202 13.7333C25.9719 14.0456 25.6172 14.2105 25.2567 14.2105Z" fill="#5C27FE"/>
<path d="M23.7027 14.6561C23.4917 15.0078 23.1168 15.1953 22.7417 15.1953C22.5074 15.1953 22.2964 15.1249 22.0855 14.9843L17.6558 12.0311L11.9136 8.21083C11.3746 7.85935 11.234 7.13279 11.6089 6.59365C11.9604 6.05466 12.687 5.91404 13.2261 6.2656L17.6557 9.21857L23.3979 13.0389C23.937 13.3906 24.0776 14.1172 23.7027 14.6561Z" fill="#DEC7FF"/>
<path d="M19.0616 23.9848C18.8167 23.9848 18.5707 23.9082 18.3601 23.7502C17.8417 23.3623 17.7364 22.6276 18.1255 22.1103L22.3438 16.4844C22.7328 15.9659 23.4676 15.863 23.9837 16.2498C24.5021 16.6377 24.6074 17.3724 24.2183 17.8897L20 23.5156C19.77 23.8234 19.4187 23.9848 19.0616 23.9848Z" fill="#5C27FE"/>
<path d="M15.4355 25.1179C15.3131 25.1179 15.1884 25.0984 15.0648 25.0572L5.44945 21.8529C4.83601 21.6492 4.50414 20.9854 4.70898 20.3708C4.91265 19.7586 5.57187 19.4221 6.19101 19.6304L15.8063 22.8347C16.4198 23.0384 16.7516 23.7022 16.5468 24.3168C16.3831 24.8077 15.9265 25.1179 15.4355 25.1179Z" fill="#DEC7FF"/>
<path d="M27.5422 33.7708C27.2859 33.7708 27.0272 33.6873 26.811 33.5145L18.7521 27.0669C18.2474 26.6617 18.165 25.9248 18.5689 25.4189C18.9752 24.9154 19.7111 24.8307 20.2169 25.2358L28.2758 31.6834C28.7805 32.0885 28.8629 32.8255 28.4589 33.3313C28.2265 33.6197 27.8867 33.7708 27.5422 33.7708Z" fill="#5C27FE"/>
<path d="M12.0303 33.3598C11.7854 33.3598 11.5394 33.2832 11.3289 33.1252C10.8104 32.7373 10.7052 32.0026 11.0942 31.4853L15.3125 25.8594C15.7028 25.3409 16.4352 25.238 16.9525 25.6248C17.4709 26.0127 17.5761 26.7474 17.1871 27.2647L12.9688 32.8906C12.7388 33.1984 12.3875 33.3598 12.0303 33.3598Z" fill="#DEC7FF"/>
<path d="M16.8312 23.6644C16.3574 23.6644 15.9099 23.3749 15.7337 22.9045L10.3481 8.54441C10.1215 7.93785 10.4281 7.26269 11.0335 7.03496C11.6377 6.80839 12.3152 7.11394 12.543 7.72042L17.9286 22.0805C18.1552 22.6871 17.8485 23.3622 17.2431 23.59C17.107 23.6404 16.9685 23.6644 16.8312 23.6644Z" fill="#DEC7FF"/>
<path d="M19.9286 25.2906C19.4033 25.2906 18.9261 24.9359 18.7934 24.4026C18.6355 23.7755 19.0177 23.1391 19.646 22.9823L33.8481 19.4324C34.4741 19.2734 35.1115 19.6555 35.2683 20.285C35.4262 20.9121 35.044 21.5484 34.4158 21.7052L20.2136 25.2551C20.1186 25.2791 20.0225 25.2906 19.9286 25.2906Z" fill="#5C27FE"/>
<path d="M27.0312 7.10938H17.6562V4.76562H27.0312C27.6876 4.76562 28.2031 5.28117 28.2031 5.9375C28.2031 6.59367 27.6876 7.10938 27.0312 7.10938Z" fill="#5C27FE"/>
<path d="M23.7032 14.6561C23.4922 15.0078 23.1172 15.1953 22.7422 15.1953C22.5079 15.1953 22.2969 15.1249 22.086 14.9843L17.6563 12.0311V9.21863L23.3985 13.0389C23.9375 13.3906 24.0781 14.1171 23.7032 14.6561Z" fill="#5C27FE"/>
<path d="M17.6562 21.1719C15.7109 21.1719 14.1406 22.7421 14.1406 24.6875C14.1406 26.6327 15.7109 28.2031 17.6562 28.2031C19.6016 28.2031 21.1719 26.6327 21.1719 24.6875C21.1719 22.7421 19.6016 21.1719 17.6562 21.1719Z" fill="#00E3FF"/>
<path d="M21.1719 24.6875C21.1719 26.6327 19.6016 28.2031 17.6562 28.2031V21.1719C19.6016 21.1719 21.1719 22.7421 21.1719 24.6875Z" fill="#00E3FF"/>
<path d="M36.4062 23.5156C34.4677 23.5156 32.8906 21.9386 32.8906 20C32.8906 18.0614 34.4677 16.4844 36.4062 16.4844C38.3448 16.4844 40 18.0614 40 20C40 21.9386 38.3448 23.5156 36.4062 23.5156Z" fill="#00E3FF"/>
<path d="M29.375 9.45312C27.4364 9.45312 25.8594 7.87609 25.8594 5.9375C25.8594 3.99891 27.4364 2.42188 29.375 2.42188C31.3136 2.42188 32.8906 3.99891 32.8906 5.9375C32.8906 7.87609 31.3136 9.45312 29.375 9.45312Z" fill="#00E3FF"/>
<path d="M24.6875 18.8281C22.7489 18.8281 21.1719 17.2511 21.1719 15.3125C21.1719 13.3739 22.7489 11.7969 24.6875 11.7969C26.6261 11.7969 28.2031 13.3739 28.2031 15.3125C28.2031 17.2511 26.6261 18.8281 24.6875 18.8281Z" fill="#00E3FF"/>
<path d="M29.375 37.5781C27.4364 37.5781 25.8594 36.0011 25.8594 34.0625C25.8594 32.1239 27.4364 30.5469 29.375 30.5469C31.3136 30.5469 32.8906 32.1239 32.8906 34.0625C32.8906 36.0011 31.3136 37.5781 29.375 37.5781Z" fill="#00E3FF"/>
<path d="M3.59375 23.5156C1.65516 23.5156 0 21.9386 0 20C0 18.0614 1.65516 16.4844 3.59375 16.4844C5.53234 16.4844 7.10938 18.0614 7.10938 20C7.10938 21.9386 5.53234 23.5156 3.59375 23.5156Z" fill="#00E3FF"/>
<path d="M10.625 9.45312C8.68641 9.45312 7.10938 7.87609 7.10938 5.9375C7.10938 3.99891 8.68641 2.42188 10.625 2.42188C12.5636 2.42188 14.1406 3.99891 14.1406 5.9375C14.1406 7.87609 12.5636 9.45312 10.625 9.45312Z" fill="#00E3FF"/>
<path d="M10.625 37.5781C8.68641 37.5781 7.10938 36.0011 7.10938 34.0625C7.10938 32.1239 8.68641 30.5469 10.625 30.5469C12.5636 30.5469 14.1406 32.1239 14.1406 34.0625C14.1406 36.0011 12.5636 37.5781 10.625 37.5781Z" fill="#00E3FF"/>
</svg>
