<svg width="40" height="40" viewBox="0 0 40 40" fill="none" xmlns="http://www.w3.org/2000/svg">
<g clip-path="url(#clip0_1_738)">
<path d="M3.95254 7.0368V9.32914H2.1348C1.49441 9.32914 1.12035 10.0513 1.4898 10.5744L5.47918 16.2224C5.79379 16.6679 6.45457 16.6679 6.76918 16.2224L10.7586 10.5744C11.128 10.0513 10.7539 9.32914 10.1136 9.32914H8.29582V7.0368C8.29582 5.55156 9.50418 4.3432 10.9895 4.3432C12.4748 4.3432 13.683 5.55156 13.683 7.0368V20.1065H18.0262V7.0368C18.0262 3.15672 14.8695 0 10.9894 0C7.10933 0 3.95254 3.15672 3.95254 7.0368Z" fill="#00E3FF"/>
<path d="M18.0255 7.03664V20.1062H15.6336V7.03664C15.6336 3.56461 13.1056 0.67125 9.79297 0.102266C10.1817 0.0346094 10.5809 0 10.989 0C14.8691 0 18.0255 3.15656 18.0255 7.03664Z" fill="#00D0FF"/>
<path d="M31.2029 40.0001H8.79977C8.00305 40.0001 7.33133 39.406 7.23398 38.6152L5.24609 22.4672H34.7565L32.7687 38.6152C32.6713 39.406 31.9996 40.0001 31.2029 40.0001Z" fill="#865FFF"/>
<path d="M5.24634 22.4674L5.59892 25.3308H16.8537C17.4359 25.3308 17.9821 25.6429 18.2507 26.1594C18.5794 26.7914 19.24 27.223 20.0016 27.223C20.7632 27.223 21.4238 26.7914 21.7524 26.1594C22.021 25.6429 22.5673 25.3308 23.1495 25.3308H28.9646C30.2644 25.3308 31.2708 26.4687 31.112 27.7587L29.7756 38.6149C29.6777 39.4061 29.0065 40.0001 28.2098 40.0001H31.2033C32 40.0001 32.6713 39.4061 32.7691 38.6149L34.7569 22.4674H5.24634Z" fill="#5C27FE"/>
<path d="M17.3707 36.3227C16.5938 36.377 15.92 35.7913 15.8656 35.0144L15.4488 29.0537C15.3945 28.2769 15.9802 27.603 16.7572 27.5487C17.534 27.4944 18.2079 28.0801 18.2622 28.857L18.679 34.8176C18.7333 35.5945 18.1476 36.2683 17.3707 36.3227Z" fill="#070A29"/>
<path d="M11.7584 36.2906C10.9872 36.399 10.2741 35.8617 10.1658 35.0905L9.33421 29.1734C9.22585 28.4022 9.76311 27.6891 10.5344 27.5808C11.3056 27.4724 12.0187 28.0097 12.127 28.7809L12.9586 34.698C13.0669 35.4691 12.5296 36.1823 11.7584 36.2906Z" fill="#070A29"/>
<path d="M22.7025 36.3227C23.4793 36.377 24.1532 35.7913 24.2075 35.0144L24.6243 29.0537C24.6786 28.2769 24.0929 27.603 23.316 27.5487C22.5391 27.4944 21.8653 28.0801 21.8109 28.857L21.3941 34.8176C21.3399 35.5945 21.9256 36.2683 22.7025 36.3227Z" fill="#070A29"/>
<path d="M28.3156 36.2906C29.0869 36.399 29.7999 35.8617 29.9083 35.0905L30.7398 29.1734C30.8482 28.4022 30.3109 27.6891 29.5397 27.5808C28.7685 27.4724 28.0554 28.0097 27.947 28.7809L27.1155 34.698C27.007 35.4691 27.5444 36.1823 28.3156 36.2906Z" fill="#070A29"/>
<path d="M35.2805 23.3592H4.72273C3.59875 23.3592 2.6875 22.448 2.6875 21.3239C2.6875 20.1999 3.59867 19.2887 4.72273 19.2887H35.2805C36.4045 19.2887 37.3158 20.1999 37.3158 21.3239C37.3158 22.448 36.4045 23.3592 35.2805 23.3592Z" fill="#DEC7FF"/>
<path d="M37.315 21.3237C37.315 21.8861 37.087 22.394 36.7187 22.7624C36.3511 23.1308 35.8416 23.3587 35.2799 23.3587H32.4766C33.0382 23.3587 33.5477 23.1308 33.9153 22.7624C34.2837 22.394 34.5116 21.8861 34.5116 21.3237C34.5116 20.1996 33.6005 19.2886 32.4766 19.2886H35.2799C36.4039 19.2886 37.315 20.1997 37.315 21.3237Z" fill="#FCA863"/>
<path d="M36.0425 11.061V18.9871H37.8602C38.5006 18.9871 38.8747 19.7093 38.5052 20.2324L34.5159 25.8804C34.2013 26.3259 33.5405 26.3259 33.2259 25.8804L29.2365 20.2324C28.867 19.7093 29.2411 18.9871 29.8815 18.9871H31.6992V11.061C31.6992 9.57573 30.4909 8.36737 29.0055 8.36737C27.5202 8.36737 26.312 9.57573 26.312 11.061V19.2885H21.9688V11.061C21.9688 7.18081 25.1255 4.02417 29.0055 4.02417C32.8856 4.02417 36.0425 7.18089 36.0425 11.061Z" fill="#7986E8"/>
<path d="M38.5033 20.2325L34.5138 25.88C34.1991 26.3259 33.5391 26.3259 33.2244 25.88L32.7793 25.2498L36.323 20.2326C36.6923 19.7095 36.319 18.9867 35.6783 18.9867H34.665C34.2205 18.9867 33.8602 18.6264 33.8602 18.1819V11.0608C33.8602 7.55172 31.2783 4.63422 27.9141 4.10868C28.3525 4.04024 28.8032 4.01211 29.263 4.02891C33.0615 4.16735 36.0404 7.35094 36.0404 11.152V18.9866H37.8585C38.4984 18.9866 38.8727 19.7094 38.5033 20.2325Z" fill="#4C5CE1"/>
</g>
<defs>
<clipPath id="clip0_1_738">
<rect width="40" height="40" fill="white"/>
</clipPath>
</defs>
</svg>
