<svg width="24" height="24" viewBox="0 0 24 24" fill="none" xmlns="http://www.w3.org/2000/svg">
<path fill-rule="evenodd" clip-rule="evenodd" d="M2.13208 0.0758642C1.2241 0.272484 0.388227 1.03989 0.106792 1.93532L0 2.2751V5.53179V8.78849L0.106792 9.12827C0.391835 10.0352 1.22747 10.7946 2.15551 10.9903C2.63966 11.0925 8.3722 11.0925 8.85634 10.9903C9.78439 10.7946 10.62 10.0352 10.9051 9.12827L11.0119 8.78849V5.53179V2.2751L10.9051 1.93532C10.62 1.02841 9.78439 0.26897 8.85634 0.07324C8.38588 -0.0259604 2.59186 -0.0237111 2.13208 0.0758642ZM15.0278 0.097185C14.5148 0.231576 14.1517 0.444176 13.7515 0.844304C13.3456 1.2502 13.1376 1.6097 13.0022 2.13902C12.9147 2.48113 12.9096 2.66688 12.9096 5.53179C12.9096 8.3967 12.9147 8.58245 13.0022 8.92457C13.1376 9.45389 13.3456 9.81339 13.7515 10.2193C14.1574 10.6252 14.5169 10.8332 15.0462 10.9686C15.3883 11.0561 15.5741 11.0612 18.439 11.0612C21.3039 11.0612 21.4897 11.0561 21.8318 10.9686C22.3611 10.8332 22.7206 10.6252 23.1265 10.2193C23.5324 9.81339 23.7404 9.45389 23.8758 8.92457C23.9633 8.58245 23.9684 8.3967 23.9684 5.53179C23.9684 2.66688 23.9633 2.48113 23.8758 2.13902C23.7404 1.6097 23.5324 1.2502 23.1265 0.844304C22.7206 0.438412 22.3611 0.230405 21.8318 0.0949826C21.489 0.00730948 21.3086 0.00257673 18.4198 0.00501339C15.5718 0.0074032 15.3471 0.0135417 15.0278 0.097185ZM8.62205 1.96536C8.84889 2.07004 8.99167 2.2184 9.08839 2.44997C9.19762 2.71131 9.19762 8.35228 9.08839 8.61361C8.99167 8.84519 8.84889 8.99355 8.62205 9.09823C8.44623 9.17934 8.25336 9.18478 5.51614 9.18576C2.98637 9.18665 2.57453 9.17714 2.42411 9.11425C2.19253 9.01754 2.04418 8.87476 1.93949 8.64791C1.85838 8.4721 1.85294 8.27923 1.85196 5.54201C1.85107 3.01223 1.86058 2.60039 1.92347 2.44997C2.02018 2.2184 2.16296 2.07004 2.38981 1.96536C2.56572 1.8842 2.75756 1.87886 5.50593 1.87886C8.2543 1.87886 8.44614 1.8842 8.62205 1.96536ZM21.5833 2.00725C21.7855 2.11287 21.8579 2.18531 21.9635 2.38751L22.094 2.63722V5.53179V8.42637L21.9635 8.67608C21.8579 8.87827 21.7855 8.95072 21.5833 9.05634L21.3336 9.18679H18.439H15.5444L15.2947 9.05634C15.0925 8.95072 15.0201 8.87827 14.9145 8.67608L14.784 8.42637V5.53179V2.63722L14.9145 2.38751C15.0201 2.18531 15.0925 2.11287 15.2947 2.00725L15.5444 1.87679H18.439H21.3336L21.5833 2.00725ZM2.13208 13.0089C1.2241 13.2056 0.388227 13.973 0.106792 14.8684L0 15.2082V18.4649V21.7216L0.106792 22.0613C0.391835 22.9682 1.22747 23.7277 2.15551 23.9234C2.63966 24.0255 8.3722 24.0255 8.85634 23.9234C9.78439 23.7277 10.62 22.9682 10.9051 22.0613L11.0119 21.7216V18.4649V15.2082L10.9051 14.8684C10.62 13.9615 9.78439 13.202 8.85634 13.0063C8.38588 12.9071 2.59186 12.9094 2.13208 13.0089ZM15.0278 13.0303C14.5148 13.1647 14.1517 13.3772 13.7515 13.7774C13.3456 14.1833 13.1376 14.5428 13.0022 15.0721C12.9147 15.4142 12.9096 15.6 12.9096 18.4649C12.9096 21.3298 12.9147 21.5155 13.0022 21.8576C13.1376 22.387 13.3456 22.7465 13.7515 23.1524C14.1574 23.5583 14.5169 23.7663 15.0462 23.9017C15.3883 23.9892 15.5741 23.9942 18.439 23.9942C21.3039 23.9942 21.4897 23.9892 21.8318 23.9017C22.3611 23.7663 22.7206 23.5583 23.1265 23.1524C23.5324 22.7465 23.7404 22.387 23.8758 21.8576C23.9633 21.5155 23.9684 21.3298 23.9684 18.4649C23.9684 15.6 23.9633 15.4142 23.8758 15.0721C23.7404 14.5428 23.5324 14.1833 23.1265 13.7774C22.7206 13.3715 22.3611 13.1635 21.8318 13.0281C21.489 12.9404 21.3086 12.9357 18.4198 12.9381C15.5718 12.9405 15.3471 12.9466 15.0278 13.0303ZM8.62205 14.8984C8.84889 15.0031 8.99167 15.1515 9.08839 15.383C9.19762 15.6444 9.19762 21.2854 9.08839 21.5467C8.99167 21.7783 8.84889 21.9266 8.62205 22.0313C8.44623 22.1124 8.25336 22.1179 5.51614 22.1188C2.98637 22.1197 2.57453 22.1102 2.42411 22.0473C2.19253 21.9506 2.04418 21.8078 1.93949 21.581C1.85838 21.4052 1.85294 21.2123 1.85196 18.4751C1.85107 15.9453 1.86058 15.5335 1.92347 15.383C2.02018 15.1515 2.16296 15.0031 2.38981 14.8984C2.56572 14.8173 2.75756 14.8119 5.50593 14.8119C8.2543 14.8119 8.44614 14.8173 8.62205 14.8984ZM21.5833 14.9403C21.7855 15.0459 21.8579 15.1184 21.9635 15.3206L22.094 15.5703V18.4649V21.3594L21.9635 21.6092C21.8579 21.8113 21.7855 21.8838 21.5833 21.9894L21.3336 22.1199H18.439H15.5444L15.2947 21.9894C15.0925 21.8838 15.0201 21.8113 14.9145 21.6092L14.784 21.3594V18.4649V15.5703L14.9145 15.3206C15.0201 15.1184 15.0925 15.0459 15.2947 14.9403L15.5444 14.8099H18.439H21.3336L21.5833 14.9403Z" fill="white"/>
</svg>
