<svg width="20" height="20" viewBox="0 0 20 20" fill="none" xmlns="http://www.w3.org/2000/svg">
<path d="M19.3774 2.43354L17.5651 0.621049C16.737 -0.207036 15.3897 -0.206997 14.5616 0.621049C13.782 1.40077 1.87359 13.3101 1.07777 14.1059C0.993002 14.1907 0.936206 14.3034 0.915971 14.4136L0.00980134 19.3073C-0.0253158 19.497 0.0351528 19.6919 0.171598 19.8284C0.308199 19.965 0.503121 20.0253 0.692612 19.9902L5.58592 19.0839C5.69901 19.0628 5.81018 19.0055 5.89354 18.9221L19.3774 5.43717C20.2074 4.60717 20.2075 3.26366 19.3774 2.43354ZM1.31722 18.6826L1.86538 15.7223L4.27733 18.1344L1.31722 18.6826ZM5.47924 17.6791L2.3207 14.5203L13.8523 2.9878L17.0109 6.14658L5.47924 17.6791ZM18.5488 4.60854L17.8395 5.31795L14.6809 2.15917L15.3902 1.44976C15.7614 1.07859 16.3652 1.07855 16.7364 1.44976L18.5488 3.26225C18.9209 3.63432 18.9209 4.23643 18.5488 4.60854Z" fill="black"/>
</svg>
