<svg width="24" height="24" viewBox="0 0 24 24" fill="none" xmlns="http://www.w3.org/2000/svg">
<path d="M11.5026 14.6585L6.6553 13.0387L11.5026 10.6151L16.3499 13.0387L11.5026 14.6585ZM11.5026 16.5062C11.4045 16.5079 11.3069 16.4916 11.2146 16.4582L6.19816 14.7857C6.12625 14.7615 6.04854 14.7606 5.97611 14.7832C5.90369 14.8058 5.84026 14.8508 5.79489 14.9116C5.74952 14.9724 5.72452 15.046 5.72346 15.1218C5.72241 15.1977 5.74536 15.2719 5.78902 15.334L10.6987 22.3734C10.7883 22.5038 10.9084 22.6104 11.0484 22.6841C11.1885 22.7578 11.3443 22.7963 11.5026 22.7963C11.6608 22.7963 11.8167 22.7578 11.9568 22.6841C12.0968 22.6104 12.2168 22.5038 12.3065 22.3734L17.2161 15.334C17.2598 15.2719 17.2828 15.1977 17.2817 15.1218C17.2807 15.046 17.2557 14.9724 17.2103 14.9116C17.1649 14.8508 17.1015 14.8058 17.0291 14.7832C16.9566 14.7606 16.8789 14.7615 16.807 14.7857L11.7905 16.4582C11.6983 16.4916 11.6007 16.5079 11.5026 16.5062ZM11.9105 8.80335L16.9018 11.2978C16.9706 11.3335 17.049 11.3461 17.1255 11.3337C17.202 11.3213 17.2725 11.2845 17.3264 11.2288C17.3803 11.1732 17.4148 11.1016 17.4248 11.0247C17.4348 10.9479 17.4197 10.8698 17.3817 10.8023L12.3665 1.70039C12.28 1.54739 12.1545 1.4201 12.0027 1.33153C11.8509 1.24296 11.6783 1.19629 11.5026 1.19629C11.3269 1.19629 11.1543 1.24296 11.0025 1.33153C10.8507 1.4201 10.7252 1.54739 10.6387 1.70039L5.62345 10.8023C5.58552 10.8698 5.57041 10.9479 5.58038 11.0247C5.59035 11.1016 5.62486 11.1732 5.67878 11.2288C5.7327 11.2845 5.80315 11.3213 5.87965 11.3337C5.95615 11.3461 6.03461 11.3335 6.10338 11.2978L11.0946 8.80335C11.2225 8.74406 11.3617 8.71334 11.5026 8.71334C11.6435 8.71334 11.7827 8.74406 11.9105 8.80335Z" fill="#232632"/>
</svg>
