<svg width="39" height="38" viewBox="0 0 39 38" fill="none" xmlns="http://www.w3.org/2000/svg">
<circle opacity="0.05" cx="19.5" cy="19" r="19" fill="yellow"/>
<path d="M17.5797 20.0395C17.5197 20.0395 16.1997 20.0395 15.5997 20.0395C15.2797 20.0395 15.1797 19.9195 15.1797 19.6195C15.1797 18.8195 15.1797 17.9995 15.1797 17.1995C15.1797 16.8795 15.2997 16.7795 15.5997 16.7795H17.5797C17.5797 16.7195 17.5797 15.5595 17.5797 15.0195C17.5797 14.2195 17.7197 13.4595 18.1197 12.7595C18.5397 12.0395 19.1397 11.5595 19.8997 11.2795C20.3997 11.0995 20.8997 11.0195 21.4397 11.0195H23.3997C23.6797 11.0195 23.7997 11.1395 23.7997 11.4195V13.6995C23.7997 13.9795 23.6797 14.0995 23.3997 14.0995C22.8597 14.0995 22.3197 14.0995 21.7797 14.1195C21.2397 14.1195 20.9597 14.3795 20.9597 14.9395C20.9397 15.5395 20.9597 16.1195 20.9597 16.7395H23.2797C23.5997 16.7395 23.7197 16.8595 23.7197 17.1795V19.5995C23.7197 19.9195 23.6197 20.0195 23.2797 20.0195C22.5597 20.0195 21.0197 20.0195 20.9597 20.0195V26.5395C20.9597 26.8795 20.8597 26.9995 20.4997 26.9995C19.6597 26.9995 18.8397 26.9995 17.9997 26.9995C17.6997 26.9995 17.5797 26.8795 17.5797 26.5795C17.5797 24.4795 17.5797 20.0995 17.5797 20.0395Z" fill="white"/>
</svg>
