<svg width="105" height="105" viewBox="0 0 105 105" fill="none" xmlns="http://www.w3.org/2000/svg">
<g filter="url(#filter0_b_194_675)">
<circle cx="52.5" cy="52.5" r="52.5" fill="url(#paint0_linear_194_675)"/>
<circle cx="52.5" cy="52.5" r="50.5" stroke="url(#paint1_linear_194_675)" stroke-width="4"/>
</g>
<path fill-rule="evenodd" clip-rule="evenodd" d="M74 47.6841V65.9226C74 71.1201 69.8212 75.3334 64.6667 75.3334H41.3333C36.1787 75.3334 32 71.1201 32 65.9226V47.6841C32 44.8586 33.2592 42.1826 35.4297 40.3953L47.0963 30.7886C50.532 27.9595 55.468 27.9595 58.9036 30.7886L70.5702 40.3953C72.7409 42.1826 74 44.8586 74 47.6841ZM60.5833 64.2501V69.5001C60.5833 70.7888 59.5387 71.8334 58.25 71.8334H47.75C46.4613 71.8334 45.4167 70.7888 45.4167 69.5001V64.2501C45.4167 60.062 48.8119 56.6667 53 56.6667C57.1881 56.6667 60.5833 60.062 60.5833 64.2501Z" fill="url(#paint2_linear_194_675)"/>
<defs>
<filter id="filter0_b_194_675" x="-4" y="-4" width="113" height="113" filterUnits="userSpaceOnUse" color-interpolation-filters="sRGB">
<feFlood flood-opacity="0" result="BackgroundImageFix"/>
<feGaussianBlur in="BackgroundImageFix" stdDeviation="2"/>
<feComposite in2="SourceAlpha" operator="in" result="effect1_backgroundBlur_194_675"/>
<feBlend mode="normal" in="SourceGraphic" in2="effect1_backgroundBlur_194_675" result="shape"/>
</filter>
<linearGradient id="paint0_linear_194_675" x1="248" y1="-61.0001" x2="7.07529" y2="-148.356" gradientUnits="userSpaceOnUse">
<stop offset="0.272195" stop-color="#01FEFD"/>
<stop offset="0.798762" stop-color="#375FFD"/>
</linearGradient>
<linearGradient id="paint1_linear_194_675" x1="-3.29605e-06" y1="48.8793" x2="83.6295" y2="91.1546" gradientUnits="userSpaceOnUse">
<stop stop-color="white" stop-opacity="0.1"/>
<stop offset="0.482151" stop-color="white" stop-opacity="0"/>
<stop offset="1" stop-color="white" stop-opacity="0.1"/>
</linearGradient>
<linearGradient id="paint2_linear_194_675" x1="53" y1="28.6667" x2="53" y2="75.3334" gradientUnits="userSpaceOnUse">
<stop stop-color="white"/>
<stop offset="1" stop-color="white" stop-opacity="0"/>
</linearGradient>
</defs>
</svg>
