<svg width="24" height="24" viewBox="0 0 24 24" fill="none" xmlns="http://www.w3.org/2000/svg">
<g opacity="0.2">
<path fill-rule="evenodd" clip-rule="evenodd" d="M21.6002 1.19995H2.4002C1.7402 1.19995 1.2002 1.73995 1.2002 2.39995V9.59995C1.2002 10.26 1.7402 10.8 2.4002 10.8H21.6002C22.2602 10.8 22.8002 10.26 22.8002 9.59995V2.39995C22.8002 1.73995 22.2602 1.19995 21.6002 1.19995ZM20.4002 8.39995H3.6002V3.59995H20.4002V8.39995ZM21.6002 13.2H2.4002C1.7402 13.2 1.2002 13.74 1.2002 14.4V21.6C1.2002 22.26 1.7402 22.7999 2.4002 22.7999H21.6002C22.2602 22.7999 22.8002 22.26 22.8002 21.6V14.4C22.8002 13.74 22.2602 13.2 21.6002 13.2ZM20.4002 20.4H3.6002V15.6H20.4002V20.4Z" fill="white"/>
</g>
</svg>
