<svg width="309" height="36" viewBox="0 0 309 36" fill="none" xmlns="http://www.w3.org/2000/svg">
<path opacity="0.3" d="M3.318 23L0.322 13.2H1.498L3.416 19.654C3.50933 19.9153 3.584 20.1813 3.64 20.452C3.696 20.7133 3.752 20.97 3.808 21.222C3.864 21.4647 3.92 21.6933 3.976 21.908H3.654C3.80333 21.4227 3.92467 21.04 4.018 20.76C4.11133 20.48 4.186 20.2513 4.242 20.074C4.30733 19.8967 4.368 19.7427 4.424 19.612L6.16 15.174H7.126L8.82 19.612C8.89467 19.7893 8.96467 19.9807 9.03 20.186C9.10467 20.382 9.17933 20.6107 9.254 20.872C9.338 21.124 9.44533 21.4413 9.576 21.824L9.282 21.894C9.338 21.6233 9.38 21.4133 9.408 21.264C9.44533 21.1053 9.47333 20.9793 9.492 20.886C9.52 20.7927 9.54333 20.6993 9.562 20.606C9.58067 20.5127 9.60867 20.3913 9.646 20.242C9.69267 20.0927 9.758 19.8873 9.842 19.626L11.746 13.2H12.936L9.94 23H9.128L6.496 16.574L6.678 16.616L4.116 23H3.318ZM17.2463 23.14C16.5089 23.14 15.8556 22.9813 15.2863 22.664C14.7169 22.3373 14.2689 21.8893 13.9423 21.32C13.6249 20.7507 13.4663 20.102 13.4663 19.374C13.4663 18.8047 13.5549 18.2867 13.7323 17.82C13.9189 17.344 14.1709 16.938 14.4883 16.602C14.8149 16.2567 15.2023 15.9907 15.6503 15.804C16.0983 15.6173 16.5883 15.524 17.1203 15.524C17.5869 15.524 18.0209 15.608 18.4223 15.776C18.8329 15.944 19.1876 16.1867 19.4863 16.504C19.7849 16.812 20.0136 17.1807 20.1723 17.61C20.3309 18.03 20.4009 18.4967 20.3823 19.01L20.3683 19.542H14.2363L14.0123 18.674H19.4863L19.2903 18.912L19.3043 18.562C19.2856 18.1607 19.1736 17.806 18.9683 17.498C18.7629 17.19 18.4969 16.9473 18.1703 16.77C17.8529 16.5927 17.5029 16.504 17.1203 16.504C16.5789 16.504 16.1123 16.6207 15.7203 16.854C15.3283 17.078 15.0296 17.4 14.8243 17.82C14.6283 18.2307 14.5256 18.7253 14.5163 19.304C14.5256 19.8827 14.6469 20.3867 14.8803 20.816C15.1136 21.236 15.4403 21.5673 15.8603 21.81C16.2896 22.0433 16.7843 22.16 17.3443 22.16C17.7456 22.16 18.1189 22.0947 18.4643 21.964C18.8096 21.824 19.1596 21.5953 19.5143 21.278L20.0463 22.034C19.8223 22.258 19.5563 22.454 19.2483 22.622C18.9496 22.7807 18.6276 22.9067 18.2823 23C17.9369 23.0933 17.5916 23.14 17.2463 23.14ZM30.4838 23V18.1C30.4838 17.624 30.3158 17.2413 29.9798 16.952C29.6438 16.6627 29.2005 16.518 28.6498 16.518C28.1925 16.518 27.7771 16.6113 27.4038 16.798C27.0305 16.9847 26.6991 17.2647 26.4098 17.638L25.7098 16.938C26.1298 16.462 26.5871 16.1073 27.0818 15.874C27.5858 15.6407 28.1318 15.524 28.7198 15.524C29.2798 15.524 29.7651 15.6173 30.1758 15.804C30.5865 15.9907 30.8991 16.2613 31.1138 16.616C31.3378 16.9707 31.4498 17.4 31.4498 17.904V23H30.4838ZM27.9638 23.14C27.4878 23.14 27.0631 23.0467 26.6898 22.86C26.3165 22.6733 26.0178 22.4167 25.7938 22.09C25.5791 21.754 25.4718 21.362 25.4718 20.914C25.4718 20.55 25.5371 20.228 25.6678 19.948C25.8078 19.668 26.0085 19.4347 26.2698 19.248C26.5311 19.0613 26.8625 18.9213 27.2638 18.828C27.6651 18.7253 28.1225 18.674 28.6358 18.674H30.9598L30.8758 19.556H28.4958C28.1691 19.556 27.8798 19.584 27.6278 19.64C27.3851 19.696 27.1751 19.7847 26.9978 19.906C26.8298 20.018 26.6991 20.158 26.6058 20.326C26.5218 20.4847 26.4798 20.676 26.4798 20.9C26.4798 21.1613 26.5451 21.3947 26.6758 21.6C26.8158 21.796 26.9978 21.95 27.2218 22.062C27.4551 22.1647 27.7165 22.216 28.0058 22.216C28.3885 22.216 28.7478 22.1507 29.0838 22.02C29.4198 21.88 29.7185 21.6933 29.9798 21.46C30.2505 21.2173 30.4651 20.9467 30.6238 20.648L30.9178 21.32C30.7125 21.6747 30.4558 21.992 30.1478 22.272C29.8398 22.5427 29.4991 22.7573 29.1258 22.916C28.7618 23.0653 28.3745 23.14 27.9638 23.14ZM36.52 23.14C35.82 23.14 35.1947 22.972 34.644 22.636C34.1027 22.3 33.6733 21.8473 33.356 21.278C33.048 20.6993 32.894 20.046 32.894 19.318C32.894 18.5993 33.048 17.9553 33.356 17.386C33.6733 16.8073 34.1027 16.3547 34.644 16.028C35.1947 15.692 35.82 15.524 36.52 15.524C37.1547 15.524 37.7287 15.65 38.242 15.902C38.7553 16.1447 39.1613 16.4853 39.46 16.924L38.844 17.652C38.676 17.428 38.4707 17.232 38.228 17.064C37.9853 16.8867 37.724 16.7513 37.444 16.658C37.164 16.5553 36.884 16.504 36.604 16.504C36.0907 16.504 35.6287 16.6253 35.218 16.868C34.8167 17.1107 34.4993 17.4467 34.266 17.876C34.0327 18.296 33.916 18.7767 33.916 19.318C33.916 19.8593 34.0327 20.3447 34.266 20.774C34.5087 21.2033 34.8353 21.544 35.246 21.796C35.6567 22.048 36.114 22.174 36.618 22.174C36.898 22.174 37.1687 22.132 37.43 22.048C37.7007 21.9547 37.9527 21.824 38.186 21.656C38.4193 21.488 38.6387 21.2827 38.844 21.04L39.446 21.782C39.138 22.1833 38.718 22.51 38.186 22.762C37.6633 23.014 37.108 23.14 36.52 23.14ZM43.9712 23.14C43.2712 23.14 42.6458 22.972 42.0952 22.636C41.5538 22.3 41.1245 21.8473 40.8072 21.278C40.4992 20.6993 40.3452 20.046 40.3452 19.318C40.3452 18.5993 40.4992 17.9553 40.8072 17.386C41.1245 16.8073 41.5538 16.3547 42.0952 16.028C42.6458 15.692 43.2712 15.524 43.9712 15.524C44.6058 15.524 45.1798 15.65 45.6932 15.902C46.2065 16.1447 46.6125 16.4853 46.9112 16.924L46.2952 17.652C46.1272 17.428 45.9218 17.232 45.6792 17.064C45.4365 16.8867 45.1752 16.7513 44.8952 16.658C44.6152 16.5553 44.3352 16.504 44.0552 16.504C43.5418 16.504 43.0798 16.6253 42.6692 16.868C42.2678 17.1107 41.9505 17.4467 41.7172 17.876C41.4838 18.296 41.3672 18.7767 41.3672 19.318C41.3672 19.8593 41.4838 20.3447 41.7172 20.774C41.9598 21.2033 42.2865 21.544 42.6972 21.796C43.1078 22.048 43.5652 22.174 44.0692 22.174C44.3492 22.174 44.6198 22.132 44.8812 22.048C45.1518 21.9547 45.4038 21.824 45.6372 21.656C45.8705 21.488 46.0898 21.2827 46.2952 21.04L46.8972 21.782C46.5892 22.1833 46.1692 22.51 45.6372 22.762C45.1145 23.014 44.5592 23.14 43.9712 23.14ZM51.5763 23.14C50.839 23.14 50.1857 22.9813 49.6163 22.664C49.047 22.3373 48.599 21.8893 48.2723 21.32C47.955 20.7507 47.7963 20.102 47.7963 19.374C47.7963 18.8047 47.885 18.2867 48.0623 17.82C48.249 17.344 48.501 16.938 48.8183 16.602C49.145 16.2567 49.5323 15.9907 49.9803 15.804C50.4283 15.6173 50.9183 15.524 51.4503 15.524C51.917 15.524 52.351 15.608 52.7523 15.776C53.163 15.944 53.5177 16.1867 53.8163 16.504C54.115 16.812 54.3437 17.1807 54.5023 17.61C54.661 18.03 54.731 18.4967 54.7123 19.01L54.6983 19.542H48.5663L48.3423 18.674H53.8163L53.6203 18.912L53.6343 18.562C53.6157 18.1607 53.5037 17.806 53.2983 17.498C53.093 17.19 52.827 16.9473 52.5003 16.77C52.183 16.5927 51.833 16.504 51.4503 16.504C50.909 16.504 50.4423 16.6207 50.0503 16.854C49.6583 17.078 49.3597 17.4 49.1543 17.82C48.9583 18.2307 48.8557 18.7253 48.8463 19.304C48.8557 19.8827 48.977 20.3867 49.2103 20.816C49.4437 21.236 49.7703 21.5673 50.1903 21.81C50.6197 22.0433 51.1143 22.16 51.6743 22.16C52.0757 22.16 52.449 22.0947 52.7943 21.964C53.1397 21.824 53.4897 21.5953 53.8443 21.278L54.3763 22.034C54.1523 22.258 53.8863 22.454 53.5783 22.622C53.2797 22.7807 52.9577 22.9067 52.6123 23C52.267 23.0933 51.9217 23.14 51.5763 23.14ZM56.242 26.122V15.65H57.306L57.32 17.596L57.124 17.526C57.208 17.1713 57.3854 16.8447 57.656 16.546C57.936 16.2473 58.272 16.0047 58.664 15.818C59.0654 15.6313 59.4807 15.538 59.91 15.538C60.582 15.538 61.1794 15.7013 61.702 16.028C62.2247 16.3547 62.6354 16.8027 62.934 17.372C63.2327 17.9413 63.382 18.59 63.382 19.318C63.382 20.046 63.2327 20.6993 62.934 21.278C62.6354 21.8473 62.2247 22.3 61.702 22.636C61.1887 22.9627 60.61 23.126 59.966 23.126C59.5087 23.126 59.07 23.0327 58.65 22.846C58.2394 22.6593 57.8847 22.412 57.586 22.104C57.2967 21.796 57.1194 21.4647 57.054 21.11L57.32 20.998V26.122H56.242ZM59.798 22.146C60.2927 22.146 60.7314 22.0247 61.114 21.782C61.506 21.5393 61.8094 21.2033 62.024 20.774C62.248 20.3447 62.36 19.8593 62.36 19.318C62.36 18.786 62.248 18.31 62.024 17.89C61.8094 17.47 61.5107 17.1387 61.128 16.896C60.7454 16.6533 60.302 16.532 59.798 16.532C59.3127 16.532 58.8787 16.6533 58.496 16.896C58.1227 17.1293 57.824 17.456 57.6 17.876C57.3854 18.296 57.278 18.7813 57.278 19.332C57.278 19.8733 57.3854 20.3587 57.6 20.788C57.824 21.208 58.1227 21.5393 58.496 21.782C58.8787 22.0247 59.3127 22.146 59.798 22.146ZM65.9874 23V13.774H67.0514V23H65.9874ZM64.2934 16.686V15.65H68.8854V16.686H64.2934ZM70.762 23.126C70.51 23.126 70.314 23.056 70.174 22.916C70.0433 22.7667 69.978 22.5567 69.978 22.286C69.978 22.034 70.048 21.8333 70.188 21.684C70.3373 21.5253 70.5287 21.446 70.762 21.446C71.014 21.446 71.2053 21.5207 71.336 21.67C71.476 21.81 71.546 22.0153 71.546 22.286C71.546 22.5287 71.4713 22.7293 71.322 22.888C71.182 23.0467 70.9953 23.126 70.762 23.126ZM70.762 17.274C70.51 17.274 70.314 17.204 70.174 17.064C70.0433 16.9147 69.978 16.7047 69.978 16.434C69.978 16.182 70.048 15.9813 70.188 15.832C70.3373 15.6733 70.5287 15.594 70.762 15.594C71.014 15.594 71.2053 15.6687 71.336 15.818C71.476 15.958 71.546 16.1633 71.546 16.434C71.546 16.6767 71.4713 16.8773 71.322 17.036C71.182 17.1947 70.9953 17.274 70.762 17.274Z" fill="white"/>
<g opacity="0.3">
<g clip-path="url(#clip0_1_519)">
<path fill-rule="evenodd" clip-rule="evenodd" d="M91.9453 18.6702L102.997 17.3787L105.948 10.0518L102.997 0.333496L91.9453 18.6702Z" fill="white"/>
<path fill-rule="evenodd" clip-rule="evenodd" d="M102.997 13.644L91.9453 18.6703L102.997 25.1996L105.948 19.112L102.997 13.644Z" fill="white"/>
<path fill-rule="evenodd" clip-rule="evenodd" d="M102.996 11.0146V25.1994L114.043 18.6701L102.996 11.0146Z" fill="white"/>
<path fill-rule="evenodd" clip-rule="evenodd" d="M102.996 13.6439L114.043 18.6702L102.996 0.333496V13.6439Z" fill="white"/>
<path fill-rule="evenodd" clip-rule="evenodd" d="M102.997 27.2933L91.9453 20.7642L102.997 36.3335L105.133 31.1613L102.997 27.2933Z" fill="white"/>
<path fill-rule="evenodd" clip-rule="evenodd" d="M102.996 27.2933V36.3335L114.052 20.7642L102.996 27.2933Z" fill="white"/>
</g>
<g clip-path="url(#clip1_1_519)">
<path d="M166.983 19.22C166.146 18.1385 164.884 17.3957 163.197 16.9919C165.346 15.8957 166.29 14.035 166.031 11.4097C165.944 10.4577 165.681 9.63263 165.241 8.93328C164.801 8.23377 164.206 7.67143 163.456 7.24601C162.706 6.82007 161.89 6.49581 161.011 6.27227C160.131 6.04872 159.121 5.88641 157.982 5.78555V0.333496H154.65V5.63407C154.074 5.63407 153.194 5.64847 152.011 5.67734V0.333496H148.679V5.78555C148.203 5.80002 147.504 5.80737 146.581 5.80737L141.994 5.78555V9.33376H144.395C145.492 9.33376 146.133 9.82427 146.321 10.8049V17.0143C146.465 17.0143 146.581 17.0217 146.667 17.0361H146.321V25.733C146.206 26.4685 145.787 26.8365 145.066 26.8365H142.665L141.994 30.7958H146.321C146.595 30.7958 146.992 30.7995 147.511 30.806C148.03 30.8132 148.42 30.8169 148.679 30.8169V36.3337H152.012V30.8818C152.617 30.8965 153.497 30.9036 154.651 30.9036V36.3337H157.983V30.8169C159.166 30.7593 160.215 30.6517 161.13 30.4925C162.046 30.3333 162.923 30.0849 163.759 29.7457C164.595 29.407 165.295 28.9848 165.857 28.48C166.42 27.9756 166.885 27.3335 167.253 26.5545C167.62 25.7755 167.855 24.874 167.956 23.8497C168.144 21.8454 167.819 20.302 166.983 19.22ZM152.076 9.5711C152.177 9.5711 152.462 9.56746 152.931 9.56019C153.4 9.55276 153.789 9.54564 154.099 9.53836C154.409 9.53124 154.827 9.54927 155.354 9.59254C155.88 9.63581 156.324 9.69363 156.684 9.76562C157.045 9.83761 157.442 9.95665 157.874 10.1225C158.307 10.2883 158.653 10.4903 158.912 10.7282C159.172 10.9662 159.392 11.2692 159.572 11.637C159.753 12.0048 159.843 12.4266 159.843 12.9025C159.843 13.3064 159.778 13.6743 159.648 14.0062C159.519 14.3379 159.324 14.6156 159.064 14.8392C158.805 15.0628 158.538 15.2577 158.264 15.4234C157.99 15.5891 157.64 15.7227 157.214 15.8235C156.789 15.9245 156.418 16.0039 156.101 16.0615C155.783 16.1192 155.387 16.159 154.911 16.1805C154.435 16.202 154.074 16.2167 153.829 16.2238C153.584 16.231 153.248 16.231 152.823 16.2238C152.397 16.2167 152.149 16.2129 152.076 16.2129V9.57102H152.076V9.5711ZM161.174 24.3043C161.036 24.6362 160.86 24.9249 160.644 25.1702C160.427 25.415 160.142 25.6316 159.789 25.8188C159.436 26.0066 159.093 26.1578 158.762 26.2732C158.43 26.389 158.029 26.4894 157.561 26.5763C157.092 26.6629 156.681 26.7238 156.327 26.7601C155.974 26.7963 155.552 26.825 155.062 26.8468C154.571 26.868 154.189 26.879 153.915 26.879C153.641 26.879 153.295 26.8751 152.876 26.868C152.458 26.8613 152.191 26.8577 152.076 26.8577V19.5447C152.191 19.5447 152.534 19.5377 153.104 19.523C153.673 19.5084 154.138 19.5017 154.499 19.5017C154.86 19.5017 155.357 19.523 155.992 19.5666C156.626 19.6095 157.16 19.6742 157.593 19.7607C158.026 19.8474 158.498 19.9806 159.01 20.1611C159.522 20.3413 159.937 20.5612 160.254 20.8208C160.572 21.0809 160.838 21.4121 161.055 21.8161C161.271 22.2198 161.38 22.6815 161.38 23.2008C161.38 23.6051 161.311 23.9723 161.174 24.3043Z" fill="white"/>
</g>
<g clip-path="url(#clip2_1_519)">
<path d="M207 36.3335C216.925 36.3335 225 28.2589 225 18.3335C225 8.40808 216.925 0.333496 207 0.333496C197.075 0.333496 189 8.40808 189 18.3335C189 28.2589 197.075 36.3335 207 36.3335ZM207 3.3335C215.271 3.3335 222 10.0626 222 18.3335C222 26.6044 215.271 33.3335 207 33.3335C198.729 33.3335 192 26.6044 192 18.3335C192 10.0626 198.729 3.3335 207 3.3335Z" fill="white"/>
<path d="M200.225 24.3333H213V21.3333H204.775L206.06 18.3333H211.5V15.3333H207.346L208.969 11.5459L206.212 10.3638L204.082 15.3333H199.5V18.3333H202.796L200.225 24.3333Z" fill="white"/>
</g>
<path fill-rule="evenodd" clip-rule="evenodd" d="M308.999 18.8059C308.999 13.9703 306.657 10.1548 302.18 10.1548C297.685 10.1548 294.965 13.9703 294.965 18.7681C294.965 24.4538 298.176 27.3248 302.785 27.3248C305.033 27.3248 306.733 26.8148 308.017 26.097V22.3191C306.733 22.9614 305.259 23.3581 303.389 23.3581C301.557 23.3581 299.933 22.7158 299.725 20.4869H308.961C308.962 20.2414 308.999 19.2591 308.999 18.8059ZM299.668 17.0114C299.668 14.8769 300.972 13.9891 302.162 13.9891C303.314 13.9891 304.542 14.8769 304.542 17.0114H299.668Z" fill="white"/>
<path fill-rule="evenodd" clip-rule="evenodd" d="M287.674 10.1548C285.823 10.1548 284.633 11.0236 283.971 11.6282L283.726 10.4571H279.57V32.4816L284.293 31.4805L284.311 26.135C284.991 26.6261 285.992 27.3249 287.655 27.3249C291.036 27.3249 294.115 24.6049 294.115 18.6171C294.096 13.1392 290.979 10.1548 287.674 10.1548ZM286.54 23.1692C285.426 23.1692 284.765 22.7725 284.311 22.2814L284.293 15.2736C284.784 14.7257 285.464 14.348 286.54 14.348C288.259 14.348 289.449 16.2747 289.449 18.7491C289.449 21.2803 288.278 23.1692 286.54 23.1692Z" fill="white"/>
<path fill-rule="evenodd" clip-rule="evenodd" d="M273.074 9.04041L277.815 8.02045V4.18604L273.074 5.18714V9.04041Z" fill="white"/>
<path d="M277.815 10.4761H273.074V27.0038H277.815V10.4761Z" fill="white"/>
<path fill-rule="evenodd" clip-rule="evenodd" d="M267.992 11.8737L267.689 10.4759H263.609V27.0037H268.332V15.8026C269.446 14.3481 271.335 14.6126 271.92 14.8203V10.4759C271.316 10.2494 269.106 9.83381 267.992 11.8737Z" fill="white"/>
<path fill-rule="evenodd" clip-rule="evenodd" d="M258.548 6.3772L253.939 7.35944L253.92 22.4894C253.92 25.285 256.017 27.3439 258.812 27.3439C260.361 27.3439 261.494 27.0605 262.118 26.7205V22.8861C261.513 23.1316 258.529 24.0005 258.529 21.205V14.4994H262.118V10.4762H258.529L258.548 6.3772Z" fill="white"/>
<path fill-rule="evenodd" clip-rule="evenodd" d="M245.779 15.2738C245.779 14.5371 246.383 14.2539 247.384 14.2539C248.82 14.2539 250.633 14.6883 252.069 15.4628V11.0239C250.501 10.4006 248.952 10.155 247.384 10.155C243.55 10.155 241 12.1572 241 15.5005C241 20.7139 248.178 19.8828 248.178 22.1305C248.178 22.9995 247.422 23.2828 246.364 23.2828C244.797 23.2828 242.794 22.6405 241.208 21.7717V26.2672C242.964 27.0228 244.74 27.3439 246.364 27.3439C250.293 27.3439 252.994 25.3983 252.994 22.0172C252.976 16.3883 245.779 17.3894 245.779 15.2738Z" fill="white"/>
</g>
<defs>
<clipPath id="clip0_1_519">
<rect width="36" height="36" fill="white" transform="translate(85)"/>
</clipPath>
<clipPath id="clip1_1_519">
<rect width="36" height="36" fill="white" transform="translate(137)"/>
</clipPath>
<clipPath id="clip2_1_519">
<rect width="36" height="36" fill="white" transform="translate(189)"/>
</clipPath>
</defs>
</svg>
