<svg width="86" height="86" viewBox="0 0 86 86" fill="none" xmlns="http://www.w3.org/2000/svg">
<g opacity="0.5">
<path d="M17.7325 51.7104C15.9675 56.1642 13.1777 60.5733 9.44167 64.8172C8.25278 66.1675 8.10185 68.0952 9.06636 69.6135C9.80911 70.7814 11.0584 71.4467 12.3811 71.4467C12.7538 71.4467 13.1331 71.3942 13.5071 71.2853C21.4252 68.9718 39.8952 60.7544 40.3913 34.4883C40.5828 24.3459 33.1647 15.6325 23.5051 14.651C18.1813 14.1182 12.8549 15.8477 8.90759 19.4158C4.95508 22.9877 2.6875 28.0871 2.6875 33.4083C2.6875 42.2857 8.98893 50.049 17.7325 51.7104ZM12.511 23.4037C15.0214 21.1348 18.1813 19.9262 21.5315 19.9262C22.0052 19.9262 22.4829 19.9498 22.9619 19.9997C29.8604 20.6991 35.1554 27.0189 35.0162 34.3859C34.6738 52.5607 24.8331 60.7426 16.684 64.4025C19.2626 60.9145 21.2887 57.3268 22.7296 53.6906C23.2912 52.2746 23.1981 50.6921 22.475 49.3483C21.7178 47.939 20.3675 46.939 18.7731 46.6044C12.5662 45.3065 8.0625 39.7557 8.0625 33.4083C8.0625 29.6054 9.68443 25.9587 12.511 23.4037Z" fill="white"/>
<path d="M51.9856 69.6134C52.7284 70.7813 53.9776 71.4466 55.3004 71.4466C55.6731 71.4466 56.051 71.3941 56.4263 71.2852C64.3445 68.9717 82.8131 60.7544 83.3092 34.4883V34.4869C83.4981 24.3445 76.0813 15.6324 66.4204 14.6509C61.0901 14.1089 55.7728 15.8463 51.8256 19.4157C47.873 22.9876 45.6055 28.0871 45.6055 33.4083C45.6055 42.2857 51.9069 50.049 60.6492 51.7103C58.8829 56.168 56.093 60.5772 52.3583 64.8184C51.1694 66.17 51.0198 68.0964 51.9856 69.6134ZM65.6462 53.6931C66.2078 52.2772 66.116 50.6946 65.3942 49.3509C64.6357 47.9402 63.2867 46.9403 61.691 46.6043C55.4841 45.3065 50.9804 39.7557 50.9804 33.4083C50.9804 29.604 52.6024 25.9586 55.4289 23.4036C57.938 21.1347 61.0979 19.9261 64.4494 19.9261C64.9218 19.9261 65.3995 19.9497 65.8798 19.9996C72.777 20.699 78.0733 27.0189 77.9342 34.3859C77.593 52.5619 67.7511 60.7425 59.6019 64.4024C62.1792 60.9171 64.2027 57.3294 65.6462 53.6931Z" fill="white"/>
</g>
</svg>
