<svg width="1700" height="770" viewBox="0 0 1700 770" fill="none" xmlns="http://www.w3.org/2000/svg">
<g opacity="0.3">
<mask id="mask0_1_964" style="mask-type:alpha" maskUnits="userSpaceOnUse" x="0" y="0" width="1700" height="770">
<path d="M0 26C0 11.6406 11.6406 0 26 0H1674C1688.36 0 1700 11.6406 1700 26V744C1700 758.359 1688.36 770 1674 770H26C11.6406 770 0 758.359 0 744V26Z" fill="#D9D9D9"/>
</mask>
<g mask="url(#mask0_1_964)">
<g opacity="0.2">
<rect x="444.66" y="-800.34" width="1" height="1600" transform="rotate(30 444.66 -800.34)" fill="white"/>
<rect x="452.454" y="-795.84" width="1" height="1600" transform="rotate(30 452.454 -795.84)" fill="white"/>
<rect x="460.249" y="-791.34" width="1" height="1600" transform="rotate(30 460.249 -791.34)" fill="white"/>
<rect x="468.043" y="-786.84" width="1" height="1600" transform="rotate(30 468.043 -786.84)" fill="white"/>
<rect x="475.837" y="-782.34" width="1" height="1600" transform="rotate(30 475.837 -782.34)" fill="white"/>
<rect x="483.631" y="-777.84" width="1" height="1600" transform="rotate(30 483.631 -777.84)" fill="white"/>
<rect x="491.426" y="-773.34" width="1" height="1600" transform="rotate(30 491.426 -773.34)" fill="white"/>
<rect x="499.22" y="-768.84" width="1" height="1600" transform="rotate(30 499.22 -768.84)" fill="white"/>
<rect x="507.014" y="-764.34" width="1" height="1600" transform="rotate(30 507.014 -764.34)" fill="white"/>
<rect x="514.808" y="-759.84" width="1" height="1600" transform="rotate(30 514.808 -759.84)" fill="white"/>
<rect x="522.603" y="-755.34" width="1" height="1600" transform="rotate(30 522.603 -755.34)" fill="white"/>
<rect x="530.397" y="-750.84" width="1" height="1600" transform="rotate(30 530.397 -750.84)" fill="white"/>
<rect x="538.191" y="-746.34" width="1" height="1600" transform="rotate(30 538.191 -746.34)" fill="white"/>
<rect x="545.985" y="-741.84" width="1" height="1600" transform="rotate(30 545.985 -741.84)" fill="white"/>
<rect x="553.779" y="-737.34" width="1" height="1600" transform="rotate(30 553.779 -737.34)" fill="white"/>
<rect x="561.574" y="-732.84" width="1" height="1600" transform="rotate(30 561.574 -732.84)" fill="white"/>
<rect x="569.368" y="-728.34" width="1" height="1600" transform="rotate(30 569.368 -728.34)" fill="white"/>
<rect x="577.162" y="-723.84" width="1" height="1600" transform="rotate(30 577.162 -723.84)" fill="white"/>
<rect x="584.956" y="-719.34" width="1" height="1600" transform="rotate(30 584.956 -719.34)" fill="white"/>
<rect x="592.751" y="-714.84" width="1" height="1600" transform="rotate(30 592.751 -714.84)" fill="white"/>
<rect x="600.545" y="-710.34" width="1" height="1600" transform="rotate(30 600.545 -710.34)" fill="white"/>
<rect x="608.339" y="-705.84" width="1" height="1600" transform="rotate(30 608.339 -705.84)" fill="white"/>
<rect x="616.133" y="-701.34" width="1" height="1600" transform="rotate(30 616.133 -701.34)" fill="white"/>
<rect x="623.928" y="-696.84" width="1" height="1600" transform="rotate(30 623.928 -696.84)" fill="white"/>
<rect x="631.722" y="-692.34" width="1" height="1600" transform="rotate(30 631.722 -692.34)" fill="white"/>
<rect x="639.516" y="-687.84" width="1" height="1600" transform="rotate(30 639.516 -687.84)" fill="white"/>
<rect x="647.31" y="-683.34" width="1" height="1600" transform="rotate(30 647.31 -683.34)" fill="white"/>
<rect x="655.104" y="-678.84" width="1" height="1600" transform="rotate(30 655.104 -678.84)" fill="white"/>
<rect x="662.899" y="-674.34" width="1" height="1600" transform="rotate(30 662.899 -674.34)" fill="white"/>
<rect x="670.693" y="-669.84" width="1" height="1600" transform="rotate(30 670.693 -669.84)" fill="white"/>
<rect x="678.487" y="-665.34" width="1" height="1600" transform="rotate(30 678.487 -665.34)" fill="white"/>
<rect x="686.281" y="-660.84" width="1" height="1600" transform="rotate(30 686.281 -660.84)" fill="white"/>
<rect x="694.076" y="-656.34" width="1" height="1600" transform="rotate(30 694.076 -656.34)" fill="white"/>
<rect x="701.87" y="-651.84" width="1" height="1600" transform="rotate(30 701.87 -651.84)" fill="white"/>
<rect x="709.664" y="-647.34" width="1" height="1600" transform="rotate(30 709.664 -647.34)" fill="white"/>
<rect x="717.458" y="-642.84" width="1" height="1600" transform="rotate(30 717.458 -642.84)" fill="white"/>
<rect x="725.252" y="-638.34" width="1" height="1600" transform="rotate(30 725.252 -638.34)" fill="white"/>
<rect x="733.047" y="-633.84" width="1" height="1600" transform="rotate(30 733.047 -633.84)" fill="white"/>
<rect x="740.841" y="-629.34" width="1" height="1600" transform="rotate(30 740.841 -629.34)" fill="white"/>
<rect x="748.635" y="-624.84" width="1" height="1600" transform="rotate(30 748.635 -624.84)" fill="white"/>
<rect x="756.429" y="-620.34" width="1" height="1600" transform="rotate(30 756.429 -620.34)" fill="white"/>
<rect x="764.224" y="-615.84" width="1" height="1600" transform="rotate(30 764.224 -615.84)" fill="white"/>
<rect x="772.018" y="-611.34" width="1" height="1600" transform="rotate(30 772.018 -611.34)" fill="white"/>
<rect x="779.812" y="-606.84" width="1" height="1600" transform="rotate(30 779.812 -606.84)" fill="white"/>
<rect x="787.606" y="-602.34" width="1" height="1600" transform="rotate(30 787.606 -602.34)" fill="white"/>
<rect x="795.401" y="-597.84" width="1" height="1600" transform="rotate(30 795.401 -597.84)" fill="white"/>
<rect x="803.195" y="-593.34" width="1" height="1600" transform="rotate(30 803.195 -593.34)" fill="white"/>
<rect x="810.989" y="-588.84" width="1" height="1600" transform="rotate(30 810.989 -588.84)" fill="white"/>
<rect x="818.783" y="-584.34" width="1" height="1600" transform="rotate(30 818.783 -584.34)" fill="white"/>
<rect x="826.577" y="-579.84" width="1" height="1600" transform="rotate(30 826.577 -579.84)" fill="white"/>
<rect x="834.372" y="-575.34" width="1" height="1600" transform="rotate(30 834.372 -575.34)" fill="white"/>
<rect x="842.166" y="-570.84" width="1" height="1600" transform="rotate(30 842.166 -570.84)" fill="white"/>
<rect x="849.96" y="-566.34" width="1" height="1600" transform="rotate(30 849.96 -566.34)" fill="white"/>
<rect x="857.754" y="-561.84" width="1" height="1600" transform="rotate(30 857.754 -561.84)" fill="white"/>
<rect x="865.549" y="-557.34" width="1" height="1600" transform="rotate(30 865.549 -557.34)" fill="white"/>
<rect x="873.343" y="-552.84" width="1" height="1600" transform="rotate(30 873.343 -552.84)" fill="white"/>
<rect x="881.137" y="-548.34" width="1" height="1600" transform="rotate(30 881.137 -548.34)" fill="white"/>
<rect x="888.931" y="-543.84" width="1" height="1600" transform="rotate(30 888.931 -543.84)" fill="white"/>
<rect x="896.726" y="-539.34" width="1" height="1600" transform="rotate(30 896.726 -539.34)" fill="white"/>
<rect x="904.52" y="-534.84" width="1" height="1600" transform="rotate(30 904.52 -534.84)" fill="white"/>
<rect x="912.314" y="-530.34" width="1" height="1600" transform="rotate(30 912.314 -530.34)" fill="white"/>
<rect x="920.108" y="-525.84" width="1" height="1600" transform="rotate(30 920.108 -525.84)" fill="white"/>
<rect x="927.902" y="-521.34" width="1" height="1600" transform="rotate(30 927.902 -521.34)" fill="white"/>
<rect x="935.697" y="-516.84" width="1" height="1600" transform="rotate(30 935.697 -516.84)" fill="white"/>
<rect x="943.491" y="-512.34" width="1" height="1600" transform="rotate(30 943.491 -512.34)" fill="white"/>
<rect x="951.285" y="-507.84" width="1" height="1600" transform="rotate(30 951.285 -507.84)" fill="white"/>
<rect x="959.079" y="-503.34" width="1" height="1600" transform="rotate(30 959.079 -503.34)" fill="white"/>
<rect x="966.874" y="-498.84" width="1" height="1600" transform="rotate(30 966.874 -498.84)" fill="white"/>
<rect x="974.668" y="-494.34" width="1" height="1600" transform="rotate(30 974.668 -494.34)" fill="white"/>
<rect x="982.462" y="-489.84" width="1" height="1600" transform="rotate(30 982.462 -489.84)" fill="white"/>
<rect x="990.256" y="-485.34" width="1" height="1600" transform="rotate(30 990.256 -485.34)" fill="white"/>
<rect x="998.05" y="-480.84" width="1" height="1600" transform="rotate(30 998.05 -480.84)" fill="white"/>
<rect x="1005.84" y="-476.34" width="1" height="1600" transform="rotate(30 1005.84 -476.34)" fill="white"/>
<rect x="1013.64" y="-471.84" width="1" height="1600" transform="rotate(30 1013.64 -471.84)" fill="white"/>
<rect x="1021.43" y="-467.34" width="1" height="1600" transform="rotate(30 1021.43 -467.34)" fill="white"/>
<rect x="1029.23" y="-462.84" width="1" height="1600" transform="rotate(30 1029.23 -462.84)" fill="white"/>
<rect x="1037.02" y="-458.34" width="1" height="1600" transform="rotate(30 1037.02 -458.34)" fill="white"/>
<rect x="1044.82" y="-453.84" width="1" height="1600" transform="rotate(30 1044.82 -453.84)" fill="white"/>
<rect x="1052.61" y="-449.34" width="1" height="1600" transform="rotate(30 1052.61 -449.34)" fill="white"/>
<rect x="1060.4" y="-444.84" width="1" height="1600" transform="rotate(30 1060.4 -444.84)" fill="white"/>
<rect x="1068.2" y="-440.34" width="1" height="1600" transform="rotate(30 1068.2 -440.34)" fill="white"/>
<rect x="1075.99" y="-435.84" width="1" height="1600" transform="rotate(30 1075.99 -435.84)" fill="white"/>
<rect x="1083.79" y="-431.34" width="1" height="1600" transform="rotate(30 1083.79 -431.34)" fill="white"/>
<rect x="1091.58" y="-426.84" width="1" height="1600" transform="rotate(30 1091.58 -426.84)" fill="white"/>
<rect x="1099.38" y="-422.34" width="1" height="1600" transform="rotate(30 1099.38 -422.34)" fill="white"/>
<rect x="1107.17" y="-417.84" width="1" height="1600" transform="rotate(30 1107.17 -417.84)" fill="white"/>
<rect x="1114.96" y="-413.34" width="1" height="1600" transform="rotate(30 1114.96 -413.34)" fill="white"/>
<rect x="1122.76" y="-408.84" width="1" height="1600" transform="rotate(30 1122.76 -408.84)" fill="white"/>
<rect x="1130.55" y="-404.34" width="1" height="1600" transform="rotate(30 1130.55 -404.34)" fill="white"/>
<rect x="1138.35" y="-399.84" width="1" height="1600" transform="rotate(30 1138.35 -399.84)" fill="white"/>
<rect x="1146.14" y="-395.34" width="1" height="1600" transform="rotate(30 1146.14 -395.34)" fill="white"/>
<rect x="1153.94" y="-390.84" width="1" height="1600" transform="rotate(30 1153.94 -390.84)" fill="white"/>
<rect x="1161.73" y="-386.34" width="1" height="1600" transform="rotate(30 1161.73 -386.34)" fill="white"/>
<rect x="1169.52" y="-381.84" width="1" height="1600" transform="rotate(30 1169.52 -381.84)" fill="white"/>
<rect x="1177.32" y="-377.34" width="1" height="1600" transform="rotate(30 1177.32 -377.34)" fill="white"/>
<rect x="1185.11" y="-372.84" width="1" height="1600" transform="rotate(30 1185.11 -372.84)" fill="white"/>
<rect x="1192.91" y="-368.34" width="1" height="1600" transform="rotate(30 1192.91 -368.34)" fill="white"/>
<rect x="1200.7" y="-363.84" width="1" height="1600" transform="rotate(30 1200.7 -363.84)" fill="white"/>
<rect x="1208.49" y="-359.34" width="1" height="1600" transform="rotate(30 1208.49 -359.34)" fill="white"/>
<rect x="1216.29" y="-354.84" width="1" height="1600" transform="rotate(30 1216.29 -354.84)" fill="white"/>
<rect x="1224.08" y="-350.34" width="1" height="1600" transform="rotate(30 1224.08 -350.34)" fill="white"/>
<rect x="1231.88" y="-345.84" width="1" height="1600" transform="rotate(30 1231.88 -345.84)" fill="white"/>
<rect x="1239.67" y="-341.34" width="1" height="1600" transform="rotate(30 1239.67 -341.34)" fill="white"/>
<rect x="1247.47" y="-336.84" width="1" height="1600" transform="rotate(30 1247.47 -336.84)" fill="white"/>
<rect x="1255.26" y="-332.34" width="1" height="1600" transform="rotate(30 1255.26 -332.34)" fill="white"/>
<rect x="1263.05" y="-327.84" width="1" height="1600" transform="rotate(30 1263.05 -327.84)" fill="white"/>
<rect x="1270.85" y="-323.34" width="1" height="1600" transform="rotate(30 1270.85 -323.34)" fill="white"/>
<rect x="1278.64" y="-318.84" width="1" height="1600" transform="rotate(30 1278.64 -318.84)" fill="white"/>
<rect x="1286.44" y="-314.34" width="1" height="1600" transform="rotate(30 1286.44 -314.34)" fill="white"/>
<rect x="1294.23" y="-309.84" width="1" height="1600" transform="rotate(30 1294.23 -309.84)" fill="white"/>
<rect x="1302.03" y="-305.34" width="1" height="1600" transform="rotate(30 1302.03 -305.34)" fill="white"/>
<rect x="1309.82" y="-300.84" width="1" height="1600" transform="rotate(30 1309.82 -300.84)" fill="white"/>
<rect x="1317.61" y="-296.34" width="1" height="1600" transform="rotate(30 1317.61 -296.34)" fill="white"/>
<rect x="1325.41" y="-291.84" width="1" height="1600" transform="rotate(30 1325.41 -291.84)" fill="white"/>
<rect x="1333.2" y="-287.34" width="1" height="1600" transform="rotate(30 1333.2 -287.34)" fill="white"/>
<rect x="1341" y="-282.84" width="1" height="1600" transform="rotate(30 1341 -282.84)" fill="white"/>
<rect x="1348.79" y="-278.34" width="1" height="1600" transform="rotate(30 1348.79 -278.34)" fill="white"/>
<rect x="1356.58" y="-273.84" width="1" height="1600" transform="rotate(30 1356.58 -273.84)" fill="white"/>
<rect x="1364.38" y="-269.34" width="1" height="1600" transform="rotate(30 1364.38 -269.34)" fill="white"/>
<rect x="1372.17" y="-264.84" width="1" height="1600" transform="rotate(30 1372.17 -264.84)" fill="white"/>
<rect x="1379.97" y="-260.34" width="1" height="1600" transform="rotate(30 1379.97 -260.34)" fill="white"/>
<rect x="1387.76" y="-255.84" width="1" height="1600" transform="rotate(30 1387.76 -255.84)" fill="white"/>
<rect x="1395.56" y="-251.34" width="1" height="1600" transform="rotate(30 1395.56 -251.34)" fill="white"/>
<rect x="1403.35" y="-246.84" width="1" height="1600" transform="rotate(30 1403.35 -246.84)" fill="white"/>
<rect x="1411.14" y="-242.34" width="1" height="1600" transform="rotate(30 1411.14 -242.34)" fill="white"/>
<rect x="1418.94" y="-237.84" width="1" height="1600" transform="rotate(30 1418.94 -237.84)" fill="white"/>
<rect x="1426.73" y="-233.34" width="1" height="1600" transform="rotate(30 1426.73 -233.34)" fill="white"/>
<rect x="1434.53" y="-228.84" width="1" height="1600" transform="rotate(30 1434.53 -228.84)" fill="white"/>
<rect x="1442.32" y="-224.34" width="1" height="1600" transform="rotate(30 1442.32 -224.34)" fill="white"/>
<rect x="1450.12" y="-219.84" width="1" height="1600" transform="rotate(30 1450.12 -219.84)" fill="white"/>
<rect x="1457.91" y="-215.34" width="1" height="1600" transform="rotate(30 1457.91 -215.34)" fill="white"/>
<rect x="1465.7" y="-210.84" width="1" height="1600" transform="rotate(30 1465.7 -210.84)" fill="white"/>
<rect x="1473.5" y="-206.34" width="1" height="1600" transform="rotate(30 1473.5 -206.34)" fill="white"/>
<rect x="1481.29" y="-201.84" width="1" height="1600" transform="rotate(30 1481.29 -201.84)" fill="white"/>
<rect x="1489.09" y="-197.34" width="1" height="1600" transform="rotate(30 1489.09 -197.34)" fill="white"/>
<rect x="1496.88" y="-192.84" width="1" height="1600" transform="rotate(30 1496.88 -192.84)" fill="white"/>
<rect x="1504.68" y="-188.34" width="1" height="1600" transform="rotate(30 1504.68 -188.34)" fill="white"/>
<rect x="1512.47" y="-183.84" width="1" height="1600" transform="rotate(30 1512.47 -183.84)" fill="white"/>
<rect x="1520.26" y="-179.34" width="1" height="1600" transform="rotate(30 1520.26 -179.34)" fill="white"/>
<rect x="1528.06" y="-174.84" width="1" height="1600" transform="rotate(30 1528.06 -174.84)" fill="white"/>
<rect x="1535.85" y="-170.34" width="1" height="1600" transform="rotate(30 1535.85 -170.34)" fill="white"/>
<rect x="1543.65" y="-165.84" width="1" height="1600" transform="rotate(30 1543.65 -165.84)" fill="white"/>
<rect x="1551.44" y="-161.34" width="1" height="1600" transform="rotate(30 1551.44 -161.34)" fill="white"/>
<rect x="1559.23" y="-156.84" width="1" height="1600" transform="rotate(30 1559.23 -156.84)" fill="white"/>
<rect x="1567.03" y="-152.34" width="1" height="1600" transform="rotate(30 1567.03 -152.34)" fill="white"/>
<rect x="1574.82" y="-147.84" width="1" height="1600" transform="rotate(30 1574.82 -147.84)" fill="white"/>
<rect x="1582.62" y="-143.34" width="1" height="1600" transform="rotate(30 1582.62 -143.34)" fill="white"/>
<rect x="1590.41" y="-138.84" width="1" height="1600" transform="rotate(30 1590.41 -138.84)" fill="white"/>
<rect x="1598.21" y="-134.34" width="1" height="1600" transform="rotate(30 1598.21 -134.34)" fill="white"/>
<rect x="1606" y="-129.84" width="1" height="1600" transform="rotate(30 1606 -129.84)" fill="white"/>
<rect x="1613.79" y="-125.34" width="1" height="1600" transform="rotate(30 1613.79 -125.34)" fill="white"/>
<rect x="1621.59" y="-120.84" width="1" height="1600" transform="rotate(30 1621.59 -120.84)" fill="white"/>
<rect x="1629.38" y="-116.34" width="1" height="1600" transform="rotate(30 1629.38 -116.34)" fill="white"/>
<rect x="1637.18" y="-111.84" width="1" height="1600" transform="rotate(30 1637.18 -111.84)" fill="white"/>
<rect x="1644.97" y="-107.34" width="1" height="1600" transform="rotate(30 1644.97 -107.34)" fill="white"/>
<rect x="1652.77" y="-102.84" width="1" height="1600" transform="rotate(30 1652.77 -102.84)" fill="white"/>
<rect x="1660.56" y="-98.3397" width="1" height="1600" transform="rotate(30 1660.56 -98.3397)" fill="white"/>
<rect x="1668.35" y="-93.8397" width="1" height="1600" transform="rotate(30 1668.35 -93.8397)" fill="white"/>
<rect x="1676.15" y="-89.3397" width="1" height="1600" transform="rotate(30 1676.15 -89.3397)" fill="white"/>
<rect x="1683.94" y="-84.8397" width="1" height="1600" transform="rotate(30 1683.94 -84.8397)" fill="white"/>
<rect x="1691.74" y="-80.3397" width="1" height="1600" transform="rotate(30 1691.74 -80.3397)" fill="white"/>
<rect x="1699.53" y="-75.8397" width="1" height="1600" transform="rotate(30 1699.53 -75.8397)" fill="white"/>
<rect x="1707.33" y="-71.3397" width="1" height="1600" transform="rotate(30 1707.33 -71.3397)" fill="white"/>
<rect x="1715.12" y="-66.8397" width="1" height="1600" transform="rotate(30 1715.12 -66.8397)" fill="white"/>
<rect x="1722.91" y="-62.3397" width="1" height="1600" transform="rotate(30 1722.91 -62.3397)" fill="white"/>
<rect x="1730.71" y="-57.8397" width="1" height="1600" transform="rotate(30 1730.71 -57.8397)" fill="white"/>
<rect x="1738.5" y="-53.3397" width="1" height="1600" transform="rotate(30 1738.5 -53.3397)" fill="white"/>
<rect x="1746.3" y="-48.8397" width="1" height="1600" transform="rotate(30 1746.3 -48.8397)" fill="white"/>
<rect x="1754.09" y="-44.3397" width="1" height="1600" transform="rotate(30 1754.09 -44.3397)" fill="white"/>
<rect x="1761.88" y="-39.8397" width="1" height="1600" transform="rotate(30 1761.88 -39.8397)" fill="white"/>
<rect x="1769.68" y="-35.3397" width="1" height="1600" transform="rotate(30 1769.68 -35.3397)" fill="white"/>
<rect x="1777.47" y="-30.8397" width="1" height="1600" transform="rotate(30 1777.47 -30.8397)" fill="white"/>
<rect x="1785.27" y="-26.3397" width="1" height="1600" transform="rotate(30 1785.27 -26.3397)" fill="white"/>
<rect x="1793.06" y="-21.8397" width="1" height="1600" transform="rotate(30 1793.06 -21.8397)" fill="white"/>
<rect x="1800.86" y="-17.3397" width="1" height="1600" transform="rotate(30 1800.86 -17.3397)" fill="white"/>
<rect x="1808.65" y="-12.8397" width="1" height="1600" transform="rotate(30 1808.65 -12.8397)" fill="white"/>
<rect x="1816.44" y="-8.33972" width="1" height="1600" transform="rotate(30 1816.44 -8.33972)" fill="white"/>
<rect x="1824.24" y="-3.83972" width="1" height="1600" transform="rotate(30 1824.24 -3.83972)" fill="white"/>
<rect x="1832.03" y="0.660278" width="1" height="1600" transform="rotate(30 1832.03 0.660278)" fill="white"/>
<rect x="1839.83" y="5.16028" width="1" height="1600" transform="rotate(30 1839.83 5.16028)" fill="white"/>
<rect x="1847.62" y="9.66028" width="1" height="1600" transform="rotate(30 1847.62 9.66028)" fill="white"/>
<rect x="1855.42" y="14.1603" width="1" height="1600" transform="rotate(30 1855.42 14.1603)" fill="white"/>
<rect x="1863.21" y="18.6603" width="1" height="1600" transform="rotate(30 1863.21 18.6603)" fill="white"/>
<rect x="1871" y="23.1603" width="1" height="1600" transform="rotate(30 1871 23.1603)" fill="white"/>
<rect x="1878.8" y="27.6603" width="1" height="1600" transform="rotate(30 1878.8 27.6603)" fill="white"/>
<rect x="1886.59" y="32.1603" width="1" height="1600" transform="rotate(30 1886.59 32.1603)" fill="white"/>
<rect x="1894.39" y="36.6603" width="1" height="1600" transform="rotate(30 1894.39 36.6603)" fill="white"/>
<rect x="1902.18" y="41.1603" width="1" height="1600" transform="rotate(30 1902.18 41.1603)" fill="white"/>
<rect x="1909.98" y="45.6603" width="1" height="1600" transform="rotate(30 1909.98 45.6603)" fill="white"/>
<rect x="1917.77" y="50.1603" width="1" height="1600" transform="rotate(30 1917.77 50.1603)" fill="white"/>
<rect x="1925.56" y="54.6603" width="1" height="1600" transform="rotate(30 1925.56 54.6603)" fill="white"/>
<rect x="1933.36" y="59.1603" width="1" height="1600" transform="rotate(30 1933.36 59.1603)" fill="white"/>
<rect x="1941.15" y="63.6603" width="1" height="1600" transform="rotate(30 1941.15 63.6603)" fill="white"/>
<rect x="1948.95" y="68.1603" width="1" height="1600" transform="rotate(30 1948.95 68.1603)" fill="white"/>
<rect x="1956.74" y="72.6603" width="1" height="1600" transform="rotate(30 1956.74 72.6603)" fill="white"/>
<rect x="1964.53" y="77.1603" width="1" height="1600" transform="rotate(30 1964.53 77.1603)" fill="white"/>
<rect x="1972.33" y="81.6603" width="1" height="1600" transform="rotate(30 1972.33 81.6603)" fill="white"/>
<rect x="1980.12" y="86.1603" width="1" height="1600" transform="rotate(30 1980.12 86.1603)" fill="white"/>
<rect x="1987.92" y="90.6603" width="1" height="1600" transform="rotate(30 1987.92 90.6603)" fill="white"/>
<rect x="1995.71" y="95.1603" width="1" height="1600" transform="rotate(30 1995.71 95.1603)" fill="white"/>
<rect x="2003.51" y="99.6603" width="1" height="1600" transform="rotate(30 2003.51 99.6603)" fill="white"/>
<rect x="2011.3" y="104.16" width="1" height="1600" transform="rotate(30 2011.3 104.16)" fill="white"/>
<rect x="2019.09" y="108.66" width="1" height="1600" transform="rotate(30 2019.09 108.66)" fill="white"/>
<rect x="2026.89" y="113.16" width="1" height="1600" transform="rotate(30 2026.89 113.16)" fill="white"/>
<rect x="2034.68" y="117.66" width="1" height="1600" transform="rotate(30 2034.68 117.66)" fill="white"/>
<rect x="2042.48" y="122.16" width="1" height="1600" transform="rotate(30 2042.48 122.16)" fill="white"/>
<rect x="2050.27" y="126.66" width="1" height="1600" transform="rotate(30 2050.27 126.66)" fill="white"/>
<rect x="2058.07" y="131.16" width="1" height="1600" transform="rotate(30 2058.07 131.16)" fill="white"/>
<rect x="2065.86" y="135.66" width="1" height="1600" transform="rotate(30 2065.86 135.66)" fill="white"/>
<rect x="2073.65" y="140.16" width="1" height="1600" transform="rotate(30 2073.65 140.16)" fill="white"/>
<rect x="2081.45" y="144.66" width="1" height="1600" transform="rotate(30 2081.45 144.66)" fill="white"/>
<rect x="2089.24" y="149.16" width="1" height="1600" transform="rotate(30 2089.24 149.16)" fill="white"/>
<rect x="2097.04" y="153.66" width="1" height="1600" transform="rotate(30 2097.04 153.66)" fill="white"/>
</g>
</g>
</g>
</svg>
