<svg width="39" height="38" viewBox="0 0 39 38" fill="none" xmlns="http://www.w3.org/2000/svg">
<circle opacity="0.05" cx="19.5" cy="19" r="19" fill="white"/>
<path d="M26.5 14.4206C25.9794 14.6615 25.4246 14.8212 24.8462 14.8988C25.4412 14.524 25.8954 13.9351 26.1089 13.2252C25.5541 13.5742 24.9416 13.8206 24.2889 13.9582C23.7621 13.3665 23.0114 13 22.1924 13C20.6034 13 19.3241 14.3606 19.3241 16.0286C19.3241 16.2686 19.3434 16.4994 19.3906 16.7191C17.0045 16.5963 14.8931 15.3898 13.4747 13.552C13.2271 14.0052 13.0819 14.524 13.0819 15.0825C13.0819 16.1311 13.5938 17.0606 14.3568 17.5988C13.8956 17.5895 13.4433 17.4483 13.06 17.2258C13.06 17.2351 13.06 17.2471 13.06 17.2591C13.06 18.7305 14.0549 19.9526 15.3595 20.2342C15.1259 20.3015 14.8712 20.3338 14.607 20.3338C14.4232 20.3338 14.2377 20.3228 14.0636 20.2822C14.4355 21.4812 15.4908 22.3628 16.7455 22.3914C15.769 23.1972 14.5291 23.6828 13.1869 23.6828C12.9515 23.6828 12.7257 23.6717 12.5 23.6412C13.7714 24.5062 15.2781 25 16.903 25C22.1845 25 25.072 20.3846 25.072 16.384C25.072 16.2502 25.0676 16.1209 25.0615 15.9926C25.6311 15.5662 26.1097 15.0335 26.5 14.4206Z" fill="white"/>
</svg>
