<svg width="38" height="38" viewBox="0 0 38 38" fill="none" xmlns="http://www.w3.org/2000/svg">
<circle opacity="0.05" cx="19" cy="19" r="19" fill="white"/>
<path d="M27.2347 14.9639C27.1458 14.2222 26.4468 13.5109 25.7154 13.4156C21.2555 12.8615 16.7457 12.8615 12.2873 13.4156C11.5553 13.5107 10.8563 14.2222 10.7674 14.9639C10.4525 17.6824 10.4525 20.3182 10.7674 23.036C10.8563 23.7778 11.5553 24.4897 12.2873 24.5843C16.7457 25.1384 21.2557 25.1384 25.7154 24.5843C26.4468 24.4898 27.1458 23.7778 27.2347 23.036C27.5496 20.3184 27.5496 17.6824 27.2347 14.9639ZM17.5893 21.8237V16.177L21.8243 19.0005L17.5893 21.8237Z" fill="white"/>
</svg>
